<svg width="788" height="154" viewBox="0 0 788 154" fill="none" xmlns="http://www.w3.org/2000/svg">
<g clip-path="url(#clip0_6425_170)">
<path d="M787.232 69.884C783.724 56.5371 773.979 50.6058 765.001 46.0004C757.097 41.833 745.699 36.9268 744.53 36.4255C741.737 35.2269 739.367 34.2473 736.692 32.0064C734.599 30.2538 732.005 28.0197 731.004 24.1657C730.789 23.3405 729.887 19.5107 731.766 15.643C734.192 10.6478 739.554 9.09749 742.259 8.31513C753.008 5.20669 762.593 11.0388 764.229 12.0761C769.747 15.5754 773.212 20.5636 774.514 22.4733C775.623 24.1005 776.431 25.5456 776.978 26.6021C780.088 22.1293 783.199 17.6564 786.309 13.1835C774.776 3.49576 745.902 -7.23817 724.107 6.60219C715.421 11.6616 710.195 20.8821 711.288 30.8652C713.567 47.4332 726.95 53.921 746.105 62.6282C754.091 66.1369 756.545 66.8203 760.282 69.9577C762.662 71.956 765.256 74.1859 766.81 78.0421C770.362 87.9874 766.658 98.5385 752.693 101.328C732.877 105.738 718.155 93.7447 711.836 82.9373V101.676C725.801 108.132 741.02 111.255 755.519 108.833C764.047 107.634 777.936 102.227 784.287 91.2296C789.841 81.5086 787.63 71.5529 787.232 69.884Z" fill="white"/>
<path d="M468.742 3.73132H446.869V105.898H468.742V3.73132Z" fill="white"/>
<path d="M56.5132 3.69495H0V21.939C0 21.939 15.7193 12.0819 38.3463 11.0764V105.861H60.2193V11.0765C82.8463 12.082 98.5656 21.9391 98.5656 21.9391V3.69495H56.5132Z" fill="white"/>
<path d="M183.321 98.564H138.663V53.866H177.852V46.5685H138.663V10.9926H140.95C167.959 10.9926 183.002 19.2002 183.002 19.2002V3.69495H116.79V105.862H183.321L183.321 98.564Z" fill="white"/>
<path d="M579.919 99.4762V3.73141H572.628V89.3689L510.809 3.69495H485.555L491.675 12.3072V105.862H498.966V22.5674L558.155 105.862H572.628H579.919V99.4762Z" fill="white"/>
<path d="M409.994 3.73137L409.995 3.72913H401.574L401.572 3.73137H401.027H394.902L398.235 9.50892L363.925 68.9881L326.285 3.72913H301.033L307.155 14.3422V105.896H314.446V26.9828L351.302 90.8809L355.503 98.1694L368.135 76.2857L401.027 19.273V105.898H422.9V52.2696V8.48395V3.73137H420.157H409.994Z" fill="white"/>
<path d="M290.861 105.862C290.861 105.862 274.329 72.6709 265.735 61.9002C263.003 58.4765 260.495 55.8656 258.11 53.866H260.33C262.443 53.866 264.495 53.6036 266.451 53.1072C267.002 52.9684 267.546 52.8123 268.082 52.6374C278.133 49.3783 285.388 39.9261 285.388 28.7762C285.388 16.3165 276.321 5.98386 264.428 4.0453C263.098 3.81472 261.727 3.69943 260.334 3.69943H225.242V3.69495H203.369V105.862H225.242V53.866H230.696C233.2 54.028 235.61 54.6513 238.002 56.7225C242.076 60.2514 265.343 105.862 265.343 105.862H290.861ZM225.242 10.993H243.928C253.738 10.993 261.695 18.9571 261.695 28.7762C261.695 38.5664 253.801 46.5051 244.045 46.5685H225.242V10.993Z" fill="white"/>
<path d="M688.053 68.3115C688.053 82.0423 682.571 91.4568 674.339 95.2765C664.332 99.9201 656.638 99.1944 651.126 98.8382C642.934 98.3087 633.306 95.1928 627.309 87.4573C621.686 80.2144 621.777 70.6819 621.841 67.7537V3.73132H599.968V67.7628C599.968 99.2199 625.32 109.383 648.599 109.651C660.83 109.651 669.047 108.566 677.301 104.03C693.4 95.1835 695.344 77.4909 695.344 67.7536V3.74961H688.053L688.053 68.3115Z" fill="white"/>
<path d="M128.796 143.379C129.285 142.558 129.527 141.566 129.527 140.403C129.527 139.771 129.433 139.146 129.245 138.53C129.057 137.914 128.713 137.363 128.208 136.875C127.703 136.389 127.015 135.991 126.145 135.682C125.273 135.375 124.154 135.221 122.787 135.221H116.789V153.538H119.122V145.944H122.736C122.94 145.944 123.171 145.94 123.426 145.931C123.684 145.923 123.922 145.902 124.145 145.867L127.606 153.538H130.245L126.401 145.302C127.51 144.842 128.31 144.2 128.796 143.379ZM125.043 143.674C124.512 143.836 123.838 143.917 123.017 143.917H119.122V137.222H122.71C123.582 137.222 124.299 137.295 124.864 137.439C125.427 137.585 125.875 137.799 126.208 138.081C126.543 138.363 126.775 138.701 126.913 139.094C127.05 139.488 127.117 139.94 127.117 140.454C127.117 140.984 127.059 141.464 126.938 141.891C126.819 142.318 126.606 142.683 126.299 142.982C125.992 143.281 125.571 143.511 125.043 143.674Z" fill="white"/>
<path d="M158.901 137.235C158.166 136.422 157.282 135.807 156.247 135.388C155.215 134.969 154.073 134.759 152.826 134.759C151.596 134.759 150.463 134.973 149.431 135.4C148.396 135.827 147.508 136.453 146.763 137.273C146.021 138.094 145.44 139.104 145.021 140.3C144.603 141.498 144.394 142.865 144.394 144.405C144.394 145.944 144.598 147.312 145.008 148.51C145.419 149.706 145.996 150.712 146.738 151.524C147.482 152.337 148.37 152.952 149.405 153.371C150.438 153.79 151.577 154 152.826 154C154.091 154 155.24 153.786 156.273 153.359C157.307 152.931 158.191 152.306 158.926 151.486C159.661 150.664 160.228 149.652 160.631 148.446C161.031 147.24 161.233 145.867 161.233 144.328C161.233 142.789 161.028 141.424 160.617 140.236C160.208 139.048 159.635 138.047 158.901 137.235ZM158.389 147.496C158.131 148.429 157.756 149.224 157.261 149.882C156.763 150.541 156.145 151.05 155.403 151.408C154.659 151.768 153.801 151.947 152.826 151.947C151.817 151.947 150.942 151.768 150.198 151.408C149.456 151.05 148.835 150.541 148.34 149.882C147.845 149.224 147.473 148.429 147.226 147.496C146.977 146.564 146.854 145.526 146.854 144.38C146.854 143.251 146.977 142.221 147.226 141.288C147.473 140.356 147.849 139.557 148.354 138.89C148.856 138.223 149.482 137.71 150.224 137.35C150.968 136.992 151.835 136.811 152.826 136.811C153.8 136.811 154.654 136.992 155.389 137.35C156.124 137.71 156.742 138.223 157.247 138.89C157.752 139.557 158.131 140.356 158.389 141.288C158.645 142.221 158.773 143.251 158.773 144.38C158.773 145.526 158.645 146.564 158.389 147.496Z" fill="white"/>
<path d="M190.813 137.235C190.078 136.422 189.194 135.807 188.159 135.388C187.127 134.969 185.985 134.759 184.738 134.759C183.508 134.759 182.376 134.973 181.343 135.4C180.308 135.827 179.42 136.453 178.676 137.273C177.934 138.094 177.352 139.104 176.934 140.3C176.515 141.498 176.306 142.865 176.306 144.405C176.306 145.944 176.51 147.312 176.92 148.51C177.331 149.706 177.908 150.712 178.65 151.524C179.394 152.337 180.282 152.952 181.317 153.371C182.35 153.79 183.489 154 184.738 154C186.003 154 187.152 153.786 188.185 153.359C189.219 152.931 190.103 152.306 190.838 151.486C191.573 150.664 192.14 149.652 192.543 148.446C192.943 147.24 193.145 145.867 193.145 144.328C193.145 142.789 192.94 141.424 192.529 140.236C192.12 139.048 191.548 138.047 190.813 137.235ZM190.301 147.496C190.043 148.429 189.669 149.224 189.173 149.882C188.676 150.541 188.057 151.05 187.315 151.408C186.571 151.768 185.713 151.947 184.738 151.947C183.729 151.947 182.854 151.768 182.11 151.408C181.368 151.05 180.748 150.541 180.252 149.882C179.757 149.224 179.385 148.429 179.138 147.496C178.889 146.564 178.766 145.526 178.766 144.38C178.766 143.251 178.889 142.221 179.138 141.288C179.385 140.356 179.761 139.557 180.266 138.89C180.768 138.223 181.394 137.71 182.136 137.35C182.88 136.992 183.747 136.811 184.738 136.811C185.713 136.811 186.566 136.992 187.301 137.35C188.036 137.71 188.655 138.223 189.159 138.89C189.664 139.557 190.043 140.356 190.301 141.288C190.557 142.221 190.685 143.251 190.685 144.38C190.685 145.526 190.557 146.564 190.301 147.496Z" fill="white"/>
<path d="M208.855 153.538H211.214V145.432H219.646V143.302H211.214V137.299H220.211V135.221H208.855V153.538Z" fill="white"/>
<path d="M237.974 135.221H235.615V153.538H237.974V135.221Z" fill="white"/>
<path d="M265.963 149.767L256.658 135.221H254.325V153.538H256.607V139.069L265.988 153.538H268.244V135.221H265.963V149.767Z" fill="white"/>
<path d="M292.619 146.175H297.233V150.562C296.584 151.041 295.851 151.392 295.042 151.614C294.231 151.836 293.363 151.947 292.44 151.947C291.414 151.947 290.526 151.768 289.775 151.408C289.021 151.049 288.393 150.536 287.891 149.869C287.386 149.202 287.014 148.403 286.775 147.471C286.535 146.538 286.417 145.508 286.417 144.379C286.417 143.25 286.54 142.22 286.789 141.288C287.035 140.356 287.398 139.557 287.877 138.89C288.356 138.223 288.954 137.705 289.672 137.337C290.389 136.969 291.226 136.785 292.184 136.785C292.919 136.785 293.547 136.872 294.068 137.043C294.589 137.214 295.028 137.457 295.386 137.774C295.747 138.09 296.04 138.471 296.272 138.915C296.503 139.36 296.686 139.848 296.824 140.377L299.103 139.993C298.917 139.206 298.642 138.492 298.284 137.85C297.924 137.209 297.468 136.657 296.912 136.195C296.356 135.735 295.686 135.38 294.9 135.132C294.114 134.884 293.21 134.759 292.184 134.759C290.986 134.759 289.884 134.973 288.877 135.401C287.868 135.828 287.003 136.453 286.275 137.273C285.549 138.094 284.982 139.104 284.57 140.3C284.161 141.498 283.956 142.865 283.956 144.405C283.956 145.91 284.144 147.257 284.519 148.446C284.896 149.634 285.447 150.639 286.172 151.46C286.898 152.281 287.789 152.909 288.837 153.346C289.889 153.781 291.089 154 292.44 154C293.054 154 293.682 153.949 294.323 153.846C294.965 153.743 295.588 153.585 296.196 153.372C296.8 153.157 297.382 152.892 297.937 152.575C298.493 152.26 299 151.888 299.463 151.46V144.122H292.619L292.619 146.175Z" fill="white"/>
<path d="M345.905 147.856C346.161 146.924 346.305 145.944 346.34 144.918H344.265C344.23 145.654 344.165 146.329 344.072 146.945C343.977 147.56 343.793 148.185 343.521 148.817L339.137 143.662C339.616 143.371 340.077 143.075 340.521 142.776C340.965 142.477 341.356 142.139 341.688 141.762C342.021 141.386 342.286 140.967 342.484 140.505C342.679 140.044 342.777 139.505 342.777 138.89C342.777 138.376 342.688 137.889 342.509 137.427C342.328 136.966 342.063 136.563 341.714 136.221C341.363 135.88 340.923 135.61 340.393 135.413C339.865 135.216 339.249 135.118 338.549 135.118C337.916 135.118 337.335 135.221 336.805 135.426C336.277 135.631 335.823 135.909 335.447 136.259C335.072 136.611 334.781 137.03 334.577 137.516C334.37 138.004 334.268 138.53 334.268 139.094C334.268 139.967 334.472 140.749 334.884 141.442C335.293 142.134 335.728 142.755 336.191 143.302C335.644 143.593 335.126 143.914 334.64 144.264C334.154 144.615 333.726 145.008 333.358 145.444C332.991 145.88 332.695 146.367 332.474 146.906C332.251 147.445 332.14 148.056 332.14 148.74C332.14 149.425 332.247 150.083 332.461 150.715C332.675 151.348 333.026 151.905 333.512 152.383C334 152.863 334.649 153.243 335.461 153.525C336.272 153.807 337.275 153.949 338.472 153.949C339.565 153.949 340.54 153.765 341.393 153.397C342.247 153.029 342.965 152.546 343.547 151.947L344.905 153.538H347.544L344.854 150.408C345.298 149.639 345.649 148.788 345.905 147.856ZM336.947 137.388C337.33 136.987 337.881 136.785 338.6 136.785C339.249 136.785 339.775 136.974 340.177 137.35C340.577 137.727 340.779 138.292 340.779 139.043C340.779 139.471 340.698 139.856 340.535 140.198C340.372 140.54 340.158 140.844 339.893 141.108C339.628 141.373 339.335 141.618 339.009 141.84C338.686 142.062 338.37 142.259 338.061 142.43C337.651 141.968 337.268 141.464 336.907 140.916C336.549 140.369 336.37 139.771 336.37 139.12C336.37 138.368 336.563 137.791 336.947 137.388ZM340.856 151.678C340.256 151.977 339.53 152.127 338.677 152.127C337.856 152.127 337.177 152.033 336.64 151.844C336.1 151.657 335.67 151.4 335.344 151.075C335.019 150.75 334.788 150.362 334.654 149.908C334.516 149.455 334.447 148.971 334.447 148.459C334.447 147.997 334.523 147.578 334.679 147.202C334.833 146.825 335.042 146.483 335.307 146.175C335.57 145.867 335.875 145.59 336.216 145.341C336.558 145.094 336.916 144.858 337.293 144.636L342.316 150.562C341.94 151.007 341.454 151.379 340.856 151.678Z" fill="white"/>
<path d="M391.924 143.379C392.413 142.558 392.654 141.566 392.654 140.403C392.654 139.771 392.561 139.146 392.373 138.53C392.185 137.914 391.838 137.363 391.336 136.875C390.831 136.389 390.143 135.991 389.271 135.682C388.401 135.375 387.28 135.221 385.915 135.221H379.917V153.538H382.25V145.944H385.864C386.068 145.944 386.298 145.94 386.554 145.931C386.81 145.923 387.05 145.902 387.273 145.867L390.733 153.538H393.373L389.529 145.302C390.638 144.842 391.438 144.2 391.924 143.379ZM388.17 143.674C387.64 143.836 386.966 143.917 386.145 143.917H382.249V137.222H385.838C386.708 137.222 387.426 137.295 387.989 137.439C388.554 137.585 389.003 137.799 389.336 138.081C389.668 138.363 389.903 138.701 390.04 139.094C390.177 139.488 390.245 139.94 390.245 140.454C390.245 140.984 390.184 141.464 390.066 141.891C389.947 142.318 389.733 142.683 389.426 142.982C389.117 143.281 388.698 143.511 388.17 143.674Z" fill="white"/>
<path d="M410.778 145.149H419.748V143.046H410.778V137.299H420.26V135.221H408.42V153.538H420.364L420.748 151.46H410.778V145.149Z" fill="white"/>
<path d="M447.813 145.059C446.923 144.229 445.532 143.636 443.634 143.276L441.071 142.814C440.439 142.696 439.908 142.554 439.483 142.392C439.055 142.229 438.709 142.024 438.444 141.776C438.178 141.528 437.99 141.237 437.881 140.903C437.769 140.57 437.713 140.18 437.713 139.736C437.713 139.325 437.785 138.936 437.932 138.569C438.076 138.201 438.32 137.885 438.662 137.62C439.004 137.355 439.457 137.145 440.02 136.992C440.585 136.837 441.285 136.76 442.123 136.76C442.857 136.76 443.481 136.829 443.992 136.966C444.506 137.102 444.937 137.304 445.288 137.569C445.636 137.834 445.92 138.167 446.134 138.569C446.346 138.971 446.523 139.429 446.66 139.941L448.862 139.506C448.725 138.907 448.525 138.321 448.26 137.748C447.995 137.175 447.606 136.667 447.095 136.221C446.581 135.777 445.92 135.423 445.108 135.157C444.297 134.892 443.283 134.759 442.071 134.759C441.113 134.759 440.225 134.862 439.406 135.067C438.585 135.273 437.876 135.589 437.278 136.016C436.68 136.444 436.206 136.974 435.855 137.607C435.504 138.239 435.329 138.975 435.329 139.813C435.329 140.668 435.452 141.396 435.701 141.994C435.948 142.592 436.315 143.093 436.804 143.494C437.29 143.897 437.885 144.226 438.585 144.482C439.285 144.738 440.087 144.944 440.994 145.098L443.301 145.509C443.985 145.629 444.543 145.791 444.981 145.997C445.415 146.201 445.757 146.441 446.006 146.715C446.253 146.988 446.42 147.292 446.504 147.625C446.59 147.959 446.634 148.304 446.634 148.664C446.634 149.109 446.564 149.532 446.427 149.934C446.29 150.335 446.06 150.687 445.736 150.986C445.411 151.285 444.981 151.525 444.441 151.704C443.904 151.883 443.232 151.973 442.429 151.973C440.822 151.973 439.613 151.687 438.804 151.114C437.99 150.541 437.483 149.613 437.278 148.33H434.92C435.006 149.323 435.243 150.177 435.636 150.896C436.029 151.614 436.55 152.204 437.201 152.667C437.85 153.127 438.615 153.466 439.494 153.679C440.373 153.893 441.352 154 442.429 154C443.557 154 444.539 153.863 445.376 153.589C446.213 153.316 446.911 152.94 447.466 152.46C448.02 151.982 448.441 151.421 448.722 150.78C449.004 150.138 449.145 149.451 449.145 148.715C449.145 147.108 448.699 145.889 447.813 145.059Z" fill="white"/>
<path d="M462.908 137.324H468.957V153.538H471.341V137.324H477.39V135.221H462.908V137.324Z" fill="white"/>
<path d="M505.02 137.235C504.285 136.422 503.401 135.807 502.366 135.388C501.334 134.969 500.192 134.759 498.945 134.759C497.715 134.759 496.582 134.973 495.55 135.4C494.515 135.827 493.627 136.453 492.885 137.273C492.141 138.094 491.559 139.104 491.141 140.3C490.722 141.498 490.513 142.865 490.513 144.405C490.513 145.944 490.717 147.312 491.129 148.51C491.538 149.706 492.115 150.712 492.859 151.524C493.601 152.337 494.489 152.952 495.524 153.371C496.557 153.79 497.699 154 498.945 154C500.21 154 501.359 153.786 502.392 153.359C503.427 152.931 504.31 152.306 505.045 151.486C505.78 150.664 506.348 149.652 506.75 148.446C507.152 147.24 507.352 145.867 507.352 144.328C507.352 142.789 507.148 141.424 506.738 140.236C506.327 139.048 505.755 138.047 505.02 137.235ZM504.508 147.496C504.252 148.429 503.876 149.224 503.38 149.882C502.885 150.541 502.264 151.05 501.522 151.408C500.778 151.768 499.92 151.947 498.945 151.947C497.938 151.947 497.062 151.768 496.317 151.408C495.576 151.05 494.955 150.541 494.459 149.882C493.964 149.224 493.592 148.429 493.345 147.496C493.096 146.564 492.973 145.526 492.973 144.38C492.973 143.251 493.096 142.221 493.345 141.288C493.592 140.356 493.968 139.557 494.473 138.89C494.978 138.223 495.601 137.71 496.343 137.35C497.087 136.992 497.955 136.811 498.945 136.811C499.92 136.811 500.773 136.992 501.508 137.35C502.243 137.71 502.862 138.223 503.366 138.89C503.871 139.557 504.252 140.356 504.508 141.288C504.764 142.221 504.892 143.251 504.892 144.38C504.892 145.526 504.764 146.564 504.508 147.496Z" fill="white"/>
<path d="M535.072 143.379C535.56 142.558 535.802 141.566 535.802 140.403C535.802 139.771 535.709 139.146 535.52 138.53C535.332 137.914 534.986 137.363 534.483 136.875C533.979 136.389 533.29 135.991 532.418 135.682C531.548 135.375 530.427 135.221 529.062 135.221H523.064V153.538H525.397V145.944H529.011C529.216 145.944 529.446 145.94 529.702 145.931C529.958 145.923 530.197 145.902 530.42 145.867L533.881 153.538H536.52L532.676 145.302C533.786 144.842 534.586 144.2 535.072 143.379ZM531.318 143.674C530.788 143.836 530.114 143.917 529.293 143.917H525.397V137.222H528.985C529.855 137.222 530.574 137.295 531.137 137.439C531.702 137.585 532.151 137.799 532.483 138.081C532.816 138.363 533.051 138.701 533.188 139.094C533.325 139.488 533.392 139.94 533.392 140.454C533.392 140.984 533.332 141.464 533.213 141.891C533.095 142.318 532.881 142.683 532.574 142.982C532.265 143.281 531.846 143.511 531.318 143.674Z" fill="white"/>
<path d="M557.333 135.221L550.207 153.538H552.668L554.591 148.433H562.433L564.356 153.538H566.919L559.819 135.221H557.333ZM555.307 146.38L558.486 137.889L561.716 146.38H555.307Z" fill="white"/>
<path d="M577.4 137.324H583.449V153.538H585.833V137.324H591.882V135.221H577.4V137.324Z" fill="white"/>
<path d="M609.033 135.221H606.675V153.538H609.033V135.221Z" fill="white"/>
<path d="M639.249 137.235C638.514 136.422 637.631 135.807 636.596 135.388C635.563 134.969 634.421 134.759 633.175 134.759C631.945 134.759 630.812 134.973 629.779 135.4C628.744 135.827 627.856 136.453 627.114 137.273C626.37 138.094 625.789 139.104 625.37 140.3C624.951 141.498 624.742 142.865 624.742 144.405C624.742 145.944 624.947 147.312 625.358 148.51C625.768 149.706 626.344 150.712 627.089 151.524C627.831 152.337 628.719 152.952 629.754 153.371C630.786 153.79 631.928 154 633.175 154C634.44 154 635.589 153.786 636.621 153.359C637.656 152.931 638.54 152.306 639.275 151.486C640.01 150.664 640.577 149.652 640.979 148.446C641.382 147.24 641.582 145.867 641.582 144.328C641.582 142.789 641.377 141.424 640.968 140.236C640.556 139.048 639.984 138.047 639.249 137.235ZM638.738 147.496C638.482 148.429 638.105 149.224 637.61 149.882C637.115 150.541 636.494 151.05 635.752 151.408C635.008 151.768 634.149 151.947 633.175 151.947C632.168 151.947 631.291 151.768 630.547 151.408C629.805 151.05 629.184 150.541 628.689 149.882C628.193 149.224 627.821 148.429 627.575 147.496C627.326 146.564 627.203 145.526 627.203 144.38C627.203 143.251 627.326 142.221 627.575 141.288C627.821 140.356 628.198 139.557 628.703 138.89C629.207 138.223 629.831 137.71 630.573 137.35C631.317 136.992 632.184 136.811 633.175 136.811C634.149 136.811 635.003 136.992 635.738 137.35C636.472 137.71 637.091 138.223 637.596 138.89C638.1 139.557 638.482 140.356 638.738 141.288C638.994 142.221 639.122 143.251 639.122 144.38C639.122 145.526 638.994 146.564 638.738 147.496Z" fill="white"/>
<path d="M668.929 149.767L659.626 135.221H657.294V153.538H659.575V139.069L668.954 153.538H671.21V135.221H668.929V149.767Z" fill="white"/>
</g>
<defs>
<clipPath id="clip0_6425_170">
<rect width="788" height="154" fill="white"/>
</clipPath>
</defs>
</svg>
