<svg width="209" height="29" viewBox="0 0 209 29" fill="none" xmlns="http://www.w3.org/2000/svg">
<path d="M208.796 18.4826C207.866 14.9527 205.281 13.384 202.9 12.166C200.804 11.0638 197.781 9.76621 197.471 9.63363C196.73 9.31665 196.101 9.05755 195.392 8.46489C194.836 8.00138 194.148 7.4105 193.883 6.39122C193.826 6.17297 193.587 5.16009 194.085 4.13718C194.729 2.81608 196.151 2.40606 196.868 2.19914C199.719 1.37704 202.261 2.91948 202.695 3.19383C204.159 4.1193 205.078 5.43856 205.423 5.94362C205.717 6.37399 205.931 6.75617 206.077 7.03559C206.902 5.85264 207.727 4.66967 208.552 3.4867C205.493 0.92454 197.835 -1.91432 192.054 1.74611C189.75 3.0842 188.364 5.5228 188.654 8.16307C189.258 12.5449 192.808 14.2608 197.888 16.5636C200.006 17.4916 200.657 17.6723 201.648 18.502C202.28 19.0306 202.968 19.6203 203.38 20.6402C204.322 23.2705 203.34 26.061 199.636 26.7988C194.38 27.9651 190.475 24.7931 188.799 21.9348V26.8908C192.503 28.5982 196.54 29.4243 200.385 28.7835C202.647 28.4664 206.331 27.0364 208.015 24.128C209.488 21.557 208.902 18.924 208.796 18.4826Z" fill="#F3EDE7"/>
<path d="M124.324 0.986816H118.522V28.0073H124.324V0.986816Z" fill="#F3EDE7"/>
<path d="M14.9889 0.977051H0V5.80213C0 5.80213 4.1692 3.19519 10.1705 2.92926V27.9975H15.9719V2.92929C21.9732 3.19522 26.1424 5.80217 26.1424 5.80217V0.977051H14.9889Z" fill="#F3EDE7"/>
<path d="M48.6219 26.0675H36.7774V14.246H47.1715V12.316H36.7774V2.9071H37.3841C44.5476 2.9071 48.5373 5.07781 48.5373 5.07781V0.977051H30.9761V27.9976H48.6219L48.6219 26.0675Z" fill="#F3EDE7"/>
<path d="M153.811 26.3088V0.986694H151.877V23.6357L135.481 0.977051H128.783L130.406 3.25477V27.9976H132.34V5.96835L148.038 27.9976H151.877H153.811V26.3088Z" fill="#F3EDE7"/>
<path d="M108.742 0.986921L108.742 0.986328H106.509L106.509 0.986921H106.364H104.74L105.623 2.51494L96.5233 18.2457L86.5402 0.986328H79.8428L81.4663 3.79323V28.0069H83.4002V7.13635L93.1754 24.0358L94.2898 25.9634L97.6401 20.1757L106.364 5.09729V28.0075H112.165V13.8241V2.24386V0.986921H111.438H108.742Z" fill="#F3EDE7"/>
<path d="M77.1449 27.9976C77.1449 27.9976 72.7601 19.2195 70.4806 16.3709C69.756 15.4654 69.0909 14.7749 68.4584 14.246H69.0472C69.6076 14.246 70.1517 14.1766 70.6705 14.0453C70.8167 14.0086 70.961 13.9674 71.1031 13.9211C73.7689 13.0591 75.6932 10.5593 75.6932 7.61041C75.6932 4.31512 73.2885 1.58241 70.1339 1.06971C69.7813 1.00873 69.4175 0.978237 69.0482 0.978237H59.7408V0.977051H53.9395V27.9976H59.7408V14.246H61.1874C61.8515 14.2889 62.4907 14.4537 63.125 15.0015C64.2056 15.9348 70.3767 27.9976 70.3767 27.9976H77.1449ZM59.7408 2.9072H64.6968C67.2987 2.9072 69.4091 5.01352 69.4091 7.61041C69.4091 10.1997 67.3155 12.2993 64.7279 12.316H59.7408V2.9072Z" fill="#F3EDE7"/>
<path d="M182.491 18.0667C182.491 21.6981 181.037 24.188 178.854 25.1982C176.2 26.4263 174.159 26.2344 172.697 26.1402C170.524 26.0002 167.971 25.1761 166.38 23.1303C164.889 21.2147 164.913 18.6936 164.93 17.9191V0.986816H159.128V17.9215C159.128 26.2412 165.853 28.929 172.027 29C175.271 29 177.45 28.7129 179.639 27.5133C183.909 25.1736 184.425 20.4944 184.425 17.9191V0.991654H182.491L182.491 18.0667Z" fill="#F3EDE7"/>
</svg>
