<svg width="19" height="20" viewBox="0 0 19 20" fill="none" xmlns="http://www.w3.org/2000/svg">
<path d="M14.7073 11.05C14.6145 10.9571 14.5043 10.8834 14.383 10.833C14.2617 10.7827 14.1317 10.7568 14.0003 10.7568C13.869 10.7568 13.739 10.7827 13.6176 10.833C13.4963 10.8834 13.3861 10.9571 13.2933 11.05L11.6993 12.644C10.9603 12.424 9.58133 11.924 8.70733 11.05C7.83333 10.176 7.33333 8.79704 7.11333 8.05804L8.70733 6.46404C8.80028 6.37125 8.87402 6.26105 8.92433 6.13973C8.97464 6.01842 9.00054 5.88837 9.00054 5.75704C9.00054 5.6257 8.97464 5.49566 8.92433 5.37434C8.87402 5.25303 8.80028 5.14283 8.70733 5.05004L4.70733 1.05004C4.61455 0.957091 4.50434 0.883353 4.38303 0.833043C4.26171 0.782732 4.13167 0.756836 4.00033 0.756836C3.869 0.756836 3.73896 0.782732 3.61764 0.833043C3.49633 0.883353 3.38612 0.957091 3.29333 1.05004L0.581334 3.76204C0.201334 4.14204 -0.0126663 4.66404 -0.00466627 5.19704C0.0183337 6.62104 0.395334 11.567 4.29333 15.465C8.19133 19.363 13.1373 19.739 14.5623 19.763H14.5903C15.1183 19.763 15.6173 19.555 15.9953 19.177L18.7073 16.465C18.8003 16.3722 18.874 16.262 18.9243 16.1407C18.9746 16.0194 19.0005 15.8894 19.0005 15.758C19.0005 15.6267 18.9746 15.4967 18.9243 15.3753C18.874 15.254 18.8003 15.1438 18.7073 15.051L14.7073 11.05ZM14.5803 17.762C13.3323 17.741 9.06233 17.406 5.70733 14.05C2.34133 10.684 2.01533 6.39904 1.99533 5.17604L4.00033 3.17104L6.58633 5.75704L5.29333 7.05004C5.1758 7.16749 5.08938 7.31237 5.04189 7.47161C4.9944 7.63084 4.98733 7.79939 5.02133 7.96204C5.04533 8.07704 5.63233 10.804 7.29233 12.464C8.95233 14.124 11.6793 14.711 11.7943 14.735C11.9569 14.77 12.1256 14.7635 12.285 14.7161C12.4444 14.6688 12.5893 14.5821 12.7063 14.464L14.0003 13.171L16.5863 15.757L14.5803 17.762Z" fill="#E0A342"/>
</svg>
