<svg width="16" height="21" viewBox="0 0 16 21" fill="none" xmlns="http://www.w3.org/2000/svg">
<path d="M8.00006 12.7573C10.2061 12.7573 12.0001 10.9633 12.0001 8.75732C12.0001 6.55132 10.2061 4.75732 8.00006 4.75732C5.79406 4.75732 4.00006 6.55132 4.00006 8.75732C4.00006 10.9633 5.79406 12.7573 8.00006 12.7573ZM8.00006 6.75732C9.10306 6.75732 10.0001 7.65432 10.0001 8.75732C10.0001 9.86032 9.10306 10.7573 8.00006 10.7573C6.89706 10.7573 6.00006 9.86032 6.00006 8.75732C6.00006 7.65432 6.89706 6.75732 8.00006 6.75732Z" fill="#E0A342"/>
<path d="M7.42009 20.5713C7.58934 20.6922 7.79211 20.7572 8.00009 20.7572C8.20806 20.7572 8.41084 20.6922 8.58009 20.5713C8.88409 20.3563 16.0291 15.1973 16.0001 8.75732C16.0001 4.34632 12.4111 0.757324 8.00009 0.757324C3.58909 0.757324 8.80377e-05 4.34632 8.80377e-05 8.75232C-0.028912 15.1973 7.11609 20.3563 7.42009 20.5713ZM8.00009 2.75732C11.3091 2.75732 14.0001 5.44832 14.0001 8.76232C14.0211 13.2003 9.61209 17.1853 8.00009 18.4923C6.38909 17.1843 1.97909 13.1983 2.00009 8.75732C2.00009 5.44832 4.69109 2.75732 8.00009 2.75732Z" fill="#E0A342"/>
</svg>
