<svg width="20" height="17" viewBox="0 0 20 17" fill="none" xmlns="http://www.w3.org/2000/svg">
<path d="M18 0.757324H2C0.897 0.757324 0 1.65432 0 2.75732V14.7573C0 15.8603 0.897 16.7573 2 16.7573H18C19.103 16.7573 20 15.8603 20 14.7573V2.75732C20 1.65432 19.103 0.757324 18 0.757324ZM18 2.75732V3.26832L10 9.49132L2 3.26932V2.75732H18ZM2 14.7573V5.80132L9.386 11.5463C9.56111 11.6839 9.77733 11.7586 10 11.7586C10.2227 11.7586 10.4389 11.6839 10.614 11.5463L18 5.80132L18.002 14.7573H2Z" fill="#E0A342"/>
</svg>
